# xmcd
# 
# Track frame offsets:
#     150
#     12129
#     22787
#     33346
#     45103
#     57070
#     68480
#     77848
#     88260
#     99497
#     111721
#     123029
#     134704
#     146459
#     154837
#     165968
#     176670
#     185465
#     200353
#     210262
#     219565
#     229280
#     239037
#     248718
#     258921
#     270927
#     281711
# 
# Disc length: 3886
# 
# Revision: 0
# Processed by: cddbd v1.5.2PL0 Copyright (c) Steve Scherf et al.
# Submitted via: fre:ac v1.1beta1pre4
# 
DISCID=6d0f2c1b
DTITLE=Don Gibson - Lonesome Singer
DYEAR=0
DGENRE=Country
TTITLE0=Red Lips, white Lies and blue Hours
TTITLE1=A blue million Tears
TTITLE2=Sample Kisses
TTITLE3=You Cast me out (Forevermore)
TTITLE4=Run Boy
TTITLE5=Sweet Dreams
TTITLE6=I believed in You
TTITLE7=Sittin' here cryin'
TTITLE8=Oh, lonesome me
TTITLE9=Heartbreake Avenue
TTITLE10=Too soon to know
TTITLE11=Blues in my Heart
TTITLE12=I can't Stop loving You
TTITLE13=Blue, blue Day
TTITLE14=Give myself a Party
TTITLE15=Look who's Blue
TTITLE16=My Hands are Tied
TTITLE17=The Streets of Laredo
TTITLE18=Who cares (for me)
TTITLE19=A Stranger to me
TTITLE20=Lonesome old House
TTITLE21=Don't tell me your Troubles
TTITLE22=I'm Movin' on
TTITLE23=Big Hearted me
TTITLE24=Just one Time
TTITLE25=(I'd be) A Legend in my Live
TTITLE26=Far, far away
EXTD=
EXTT0=
EXTT1=
EXTT2=
EXTT3=
EXTT4=
EXTT5=
EXTT6=
EXTT7=
EXTT8=
EXTT9=
EXTT10=
EXTT11=
EXTT12=
EXTT13=
EXTT14=
EXTT15=
EXTT16=
EXTT17=
EXTT18=
EXTT19=
EXTT20=
EXTT21=
EXTT22=
EXTT23=
EXTT24=
EXTT25=
EXTT26=
PLAYORDER=
